<svg width="23" height="23" viewBox="0 0 23 23" fill="none" xmlns="http://www.w3.org/2000/svg">
<path d="M10.5947 17.1869H8.47575C7.43983 17.1869 6.59226 18.0344 6.59226 19.0703V19.3058H5.65052C5.26441 19.3058 4.94421 19.626 4.94421 20.0121C4.94421 20.3982 5.26441 20.7184 5.65052 20.7184H16.9514C17.3375 20.7184 17.6577 20.3982 17.6577 20.0121C17.6577 19.626 17.3375 19.3058 16.9514 19.3058H16.0097V19.0703C16.0097 18.0344 15.1621 17.1869 14.1262 17.1869H12.0073V15.0303C11.7718 15.0585 11.5364 15.0679 11.301 15.0679C11.0655 15.0679 10.8301 15.0585 10.5947 15.0303V17.1869Z" fill="#D00000"/>
<path d="M17.4034 10.9622C18.025 10.7268 18.5712 10.3406 19.0044 9.90744C19.8802 8.93744 20.4547 7.7791 20.4547 6.42299C20.4547 5.06688 19.3905 4.00271 18.0344 4.00271H17.507C16.8949 2.75019 15.6141 1.88379 14.1262 1.88379H8.47573C6.98777 1.88379 5.707 2.75019 5.09487 4.00271H4.5675C3.21139 4.00271 2.14722 5.06688 2.14722 6.42299C2.14722 7.7791 2.72168 8.93744 3.5975 9.90744C4.0307 10.3406 4.57691 10.7268 5.19846 10.9622C6.17788 13.3731 8.53223 15.0682 11.301 15.0682C14.0697 15.0682 16.424 13.3731 17.4034 10.9622ZM13.9755 7.95803L13.3916 8.67375C13.2975 8.77735 13.2315 8.98453 13.2409 9.12579L13.2975 10.0487C13.3351 10.6137 12.9302 10.9057 12.4028 10.6985L11.5458 10.3595C11.414 10.3124 11.1879 10.3124 11.0561 10.3595L10.1991 10.6985C9.67174 10.9057 9.26679 10.6137 9.30446 10.0487L9.36097 9.12579C9.37038 8.98453 9.30446 8.77735 9.21029 8.67375L8.62641 7.95803C8.25913 7.52483 8.41922 7.04454 8.96544 6.90328L9.86009 6.67726C10.0014 6.63959 10.1709 6.50775 10.2462 6.38532L10.7453 5.61309C11.0561 5.1328 11.5458 5.1328 11.8566 5.61309L12.3557 6.38532C12.431 6.50775 12.6006 6.63959 12.7418 6.67726L13.6365 6.90328C14.1827 7.04454 14.3428 7.52483 13.9755 7.95803Z" fill="#D00000"/>
</svg>
