<svg width="17" height="17" viewBox="0 0 17 17" fill="none" xmlns="http://www.w3.org/2000/svg">
<path d="M11.5576 2.37891H4.75902C2.71945 2.37891 1.35974 3.39869 1.35974 5.77819V10.5372C1.35974 12.9167 2.71945 13.9365 4.75902 13.9365H11.5576C13.5972 13.9365 14.9569 12.9167 14.9569 10.5372V5.77819C14.9569 3.39869 13.5972 2.37891 11.5576 2.37891ZM11.8771 6.51923L9.74917 8.21887C9.30046 8.57919 8.72938 8.75596 8.1583 8.75596C7.58722 8.75596 7.00935 8.57919 6.56744 8.21887L4.43949 6.51923C4.22194 6.34247 4.18794 6.01614 4.35791 5.79858C4.53467 5.58103 4.8542 5.54024 5.07176 5.717L7.19971 7.41664C7.7164 7.83135 8.59341 7.83135 9.1101 7.41664L11.2381 5.717C11.4556 5.54024 11.7819 5.57423 11.9519 5.79858C12.1287 6.01614 12.0947 6.34247 11.8771 6.51923Z" fill="#D00000"/>
</svg>
