<svg width="17" height="17" viewBox="0 0 17 17" fill="none" xmlns="http://www.w3.org/2000/svg">
<g clip-path="url(#clip0_264_2684)">
<path d="M4.759 15.6365C4.38508 15.6365 4.06498 15.5034 3.79871 15.2371C3.53243 14.9708 3.39929 14.6507 3.39929 14.2768V2.0394C3.39929 1.66548 3.53243 1.34538 3.79871 1.0791C4.06498 0.812826 4.38508 0.679688 4.759 0.679688H11.5576C11.9315 0.679688 12.2516 0.812826 12.5179 1.0791C12.7841 1.34538 12.9173 1.66548 12.9173 2.0394V4.14695C13.1212 4.22627 13.2855 4.35091 13.4102 4.52087C13.5348 4.69084 13.5971 4.88346 13.5971 5.09875V6.45846C13.5971 6.67375 13.5348 6.86638 13.4102 7.03634C13.2855 7.20631 13.1212 7.33095 12.9173 7.41026V14.2768C12.9173 14.6507 12.7841 14.9708 12.5179 15.2371C12.2516 15.5034 11.9315 15.6365 11.5576 15.6365H4.759ZM4.759 14.2768H11.5576V2.0394H4.759V14.2768ZM7.51242 10.1977L10.8777 6.83239L9.92591 5.88059L7.51242 8.29408L6.56062 7.34228L5.60882 8.29408L7.51242 10.1977Z" fill="#D00000"/>
</g>
<defs>
<clipPath id="clip0_264_2684">
<rect width="16.3165" height="16.3165" fill="white"/>
</clipPath>
</defs>
</svg>
